<svg xmlns="http://www.w3.org/2000/svg" width="1000" height="1000" viewBox="0 0 4000 4000">
    <defs>
        <style>
            .cls-1 {
            fill: #39abf7;
            fill-rule: evenodd;
            }
        </style>
    </defs>
    <path id="CUBE" class="cls-1"
          d="M585.13,1140.62L1936.65,356.165,3288.16,1140.62,1936.65,1900.93Zm-72.4,96.55L1870.28,2009.55V3602.6L512.727,2818.14V1237.17ZM3052.86,1593.19l307.65-180.94v110.58L3052.86,1701.8V1593.19Zm-259.45,150.85,181.01-108.61v108.61l-181.01,108.62V1744.04Zm199.11,162.93,367.99-212.74v110.58l-367.99,210.78V1906.97Zm-476.65,277.57,398.21-229.3v108.62l-398.21,229.3V2184.54Zm247.38,144.83,597.26-347.64v110.58l-597.26,345.67V2329.37Zm-579.23,337.92,120.67-72.42v114.66l-120.67,66.37V2667.29Zm199.11-114.66,301.68-174.99v108.62l-301.68,174.99V2552.63Zm844.7-205.16,132.68-78.24v110.58l-132.68,76.28V2347.47Zm-283.58,162.92,205.14-120.68v114.65l-205.14,114.65V2510.39ZM2558.1,2739.7l301.68-181.03v114.65L2558.1,2848.31V2739.7Zm651.63-96.55,150.84-84.48v108.62l-150.84,84.48V2643.15Zm-325.81,193.09,247.37-150.85v114.65l-247.37,144.82V2836.24ZM1119,3389L772,3193s-286.007,49.55-474-60c-299.539-174.56,34-646,34-646s-627.056,670.27-157,929C468.307,3577.44,1119,3389,1119,3389ZM3541,1564v409s778.24-743.22,308-1057c-211.13-140.881-687-46-687-46s398.75-19.635,503,190C3768.81,1268.76,3541,1564,3541,1564Z"/>
</svg>
